<svg width="400" height="400" viewBox="0 0 400 400" fill="none" xmlns="http://www.w3.org/2000/svg">
<rect width="400" height="400" fill="#1B1B1F"/>
<path d="M31.1301 224L20.8574 189.091H27.8801L34.721 214.727H35.0619L41.9256 189.091H48.9483L55.7665 214.614H56.1074L62.9028 189.091H69.9256L59.6756 224H52.7437L45.6528 198.795H45.1301L38.0392 224H31.1301ZM88.4535 224.773C86.2414 224.773 84.2414 224.364 82.4535 223.545C80.6656 222.712 79.249 221.508 78.2035 219.932C77.1732 218.356 76.6581 216.424 76.6581 214.136C76.6581 212.167 77.0368 210.545 77.7944 209.273C78.552 208 79.5747 206.992 80.8626 206.25C82.1505 205.508 83.5899 204.947 85.1808 204.568C86.7717 204.189 88.3929 203.902 90.0444 203.705C92.1353 203.462 93.8323 203.265 95.1353 203.114C96.4384 202.947 97.3853 202.682 97.9762 202.318C98.5672 201.955 98.8626 201.364 98.8626 200.545V200.386C98.8626 198.402 98.302 196.864 97.1808 195.773C96.0747 194.682 94.4232 194.136 92.2262 194.136C89.9384 194.136 88.1353 194.644 86.8172 195.659C85.5141 196.659 84.6126 197.773 84.1126 199L77.7262 197.545C78.4838 195.424 79.5899 193.712 81.0444 192.409C82.5141 191.091 84.2035 190.136 86.1126 189.545C88.0217 188.939 90.0293 188.636 92.1353 188.636C93.5293 188.636 95.0065 188.803 96.5672 189.136C98.1429 189.455 99.6126 190.045 100.976 190.909C102.355 191.773 103.484 193.008 104.363 194.614C105.241 196.205 105.681 198.273 105.681 200.818V224H99.0444V219.227H98.7717C98.3323 220.106 97.6732 220.97 96.7944 221.818C95.9156 222.667 94.7868 223.371 93.4081 223.932C92.0293 224.492 90.3778 224.773 88.4535 224.773ZM89.9308 219.318C91.8096 219.318 93.4156 218.947 94.749 218.205C96.0975 217.462 97.1202 216.492 97.8172 215.295C98.5293 214.083 98.8853 212.788 98.8853 211.409V206.909C98.6429 207.152 98.1732 207.379 97.4762 207.591C96.7944 207.788 96.0141 207.962 95.1353 208.114C94.2565 208.25 93.4005 208.379 92.5672 208.5C91.7338 208.606 91.0368 208.697 90.4762 208.773C89.1581 208.939 87.9535 209.22 86.8626 209.614C85.7868 210.008 84.9232 210.576 84.2717 211.318C83.6353 212.045 83.3172 213.015 83.3172 214.227C83.3172 215.909 83.9384 217.182 85.1808 218.045C86.4232 218.894 88.0065 219.318 89.9308 219.318ZM123.447 177.455V224H116.652V177.455H123.447ZM140.759 212.159L140.714 203.864H141.896L155.805 189.091H163.941L148.078 205.909H147.009L140.759 212.159ZM134.509 224V177.455H141.305V224H134.509ZM156.555 224L144.055 207.409L148.737 202.659L164.896 224H156.555ZM172.054 224V189.091H178.85V224H172.054ZM175.486 183.705C174.304 183.705 173.289 183.311 172.441 182.523C171.607 181.72 171.191 180.765 171.191 179.659C171.191 178.538 171.607 177.583 172.441 176.795C173.289 175.992 174.304 175.591 175.486 175.591C176.668 175.591 177.676 175.992 178.509 176.795C179.357 177.583 179.782 178.538 179.782 179.659C179.782 180.765 179.357 181.72 178.509 182.523C177.676 183.311 176.668 183.705 175.486 183.705ZM196.707 203.273V224H189.912V189.091H196.435V194.773H196.866C197.67 192.924 198.927 191.439 200.639 190.318C202.366 189.197 204.541 188.636 207.162 188.636C209.541 188.636 211.624 189.136 213.412 190.136C215.2 191.121 216.586 192.591 217.571 194.545C218.556 196.5 219.048 198.917 219.048 201.795V224H212.253V202.614C212.253 200.083 211.594 198.106 210.276 196.682C208.957 195.242 207.147 194.523 204.844 194.523C203.268 194.523 201.866 194.864 200.639 195.545C199.427 196.227 198.465 197.227 197.753 198.545C197.056 199.848 196.707 201.424 196.707 203.273ZM244.718 237.818C241.946 237.818 239.559 237.455 237.559 236.727C235.574 236 233.953 235.038 232.696 233.841C231.438 232.644 230.499 231.333 229.877 229.909L235.718 227.5C236.127 228.167 236.673 228.871 237.355 229.614C238.052 230.371 238.991 231.015 240.173 231.545C241.37 232.076 242.908 232.341 244.786 232.341C247.362 232.341 249.491 231.712 251.173 230.455C252.855 229.212 253.696 227.227 253.696 224.5V217.636H253.264C252.855 218.379 252.264 219.205 251.491 220.114C250.733 221.023 249.688 221.811 248.355 222.477C247.021 223.144 245.286 223.477 243.15 223.477C240.393 223.477 237.908 222.833 235.696 221.545C233.499 220.242 231.756 218.326 230.468 215.795C229.196 213.25 228.559 210.121 228.559 206.409C228.559 202.697 229.188 199.515 230.446 196.864C231.718 194.212 233.461 192.182 235.673 190.773C237.885 189.348 240.393 188.636 243.196 188.636C245.362 188.636 247.112 189 248.446 189.727C249.779 190.439 250.817 191.273 251.559 192.227C252.317 193.182 252.9 194.023 253.309 194.75H253.809V189.091H260.468V224.773C260.468 227.773 259.771 230.235 258.377 232.159C256.983 234.083 255.097 235.508 252.718 236.432C250.355 237.356 247.688 237.818 244.718 237.818ZM244.65 217.841C246.605 217.841 248.256 217.386 249.605 216.477C250.968 215.553 251.999 214.235 252.696 212.523C253.408 210.795 253.764 208.727 253.764 206.318C253.764 203.97 253.415 201.902 252.718 200.114C252.021 198.326 250.999 196.932 249.65 195.932C248.302 194.917 246.635 194.409 244.65 194.409C242.605 194.409 240.9 194.939 239.536 196C238.173 197.045 237.143 198.47 236.446 200.273C235.764 202.076 235.423 204.091 235.423 206.318C235.423 208.606 235.771 210.614 236.468 212.341C237.165 214.068 238.196 215.417 239.559 216.386C240.938 217.356 242.635 217.841 244.65 217.841ZM279.07 224L268.797 189.091H275.82L282.661 214.727H283.002L289.866 189.091H296.888L303.706 214.614H304.047L310.843 189.091H317.866L307.616 224H300.684L293.593 198.795H293.07L285.979 224H279.07ZM326.234 224V189.091H333.03V224H326.234ZM329.666 183.705C328.484 183.705 327.469 183.311 326.621 182.523C325.787 181.72 325.371 180.765 325.371 179.659C325.371 178.538 325.787 177.583 326.621 176.795C327.469 175.992 328.484 175.591 329.666 175.591C330.848 175.591 331.856 175.992 332.689 176.795C333.537 177.583 333.962 178.538 333.962 179.659C333.962 180.765 333.537 181.72 332.689 182.523C331.856 183.311 330.848 183.705 329.666 183.705ZM360.706 189.091V194.545H340.978V189.091H360.706ZM346.387 224V185.045C346.387 182.864 346.865 181.053 347.819 179.614C348.774 178.159 350.039 177.076 351.615 176.364C353.19 175.636 354.903 175.273 356.751 175.273C358.115 175.273 359.281 175.386 360.251 175.614C361.221 175.826 361.94 176.023 362.41 176.205L360.819 181.705C360.501 181.614 360.092 181.508 359.592 181.386C359.092 181.25 358.486 181.182 357.774 181.182C356.122 181.182 354.94 181.591 354.228 182.409C353.531 183.227 353.183 184.409 353.183 185.955V224H346.387ZM369.637 224V189.091H376.432V224H369.637ZM373.069 183.705C371.887 183.705 370.872 183.311 370.023 182.523C369.19 181.72 368.773 180.765 368.773 179.659C368.773 178.538 369.19 177.583 370.023 176.795C370.872 175.992 371.887 175.591 373.069 175.591C374.251 175.591 375.258 175.992 376.091 176.795C376.94 177.583 377.364 178.538 377.364 179.659C377.364 180.765 376.94 181.72 376.091 182.523C375.258 183.311 374.251 183.705 373.069 183.705Z" fill="white"/>
</svg>
